name analog
datacolumns 19
datarows 51
range 0.0 0.025
endheader
time	ground_force_vx	ground_force_vy	ground_force_vz	ground_force_px	ground_force_py	ground_force_pz	l_ground_force_vx	l_ground_force_vy	l_ground_force_vz	l_ground_force_px	l_ground_force_py	l_ground_force_pz	ground_torque_x	ground_torque_y	ground_torque_z	l_ground_torque_x	l_ground_torque_y	l_ground_torque_z
0.0	-0.0	-0.0	-0.0	6.07663631439209	15.138466835021973	-343.2500305175781	-4.753318309783936	-16.612342834472656	-282.4325866699219	-0.0	-0.0	-0.0	-0.0	-0.0	-0.0	100216.1796875	8427.951171875	-4370.85595703125
0.0005	-0.0	-0.0	-0.0	6.220587253570557	14.984408378601074	-342.99169921875	-4.701671600341797	-16.692798614501953	-282.40655517578125	-0.0	-0.0	-0.0	-0.0	-0.0	-0.0	100039.171875	8528.0693359375	-4400.56591796875
0.001	-0.0	-0.0	-0.0	6.182509422302246	15.357389450073242	-343.0876159667969	-4.695759296417236	-16.581764221191406	-282.81280517578125	-0.0	-0.0	-0.0	-0.0	-0.0	-0.0	99720.0	8461.00390625	-4449.529296875
0.0015	-0.0	-0.0	-0.0	6.231318950653076	15.252352714538574	-343.0439758300781	-4.879093170166016	-16.442058563232422	-281.9680480957031	-0.0	-0.0	-0.0	-0.0	-0.0	-0.0	99882.0078125	8537.029296875	-4504.13720703125
0.002	-0.0	-0.0	-0.0	6.258044242858887	15.54660701751709	-342.57672119140625	-4.74420976638794	-17.046085357666016	-281.2137451171875	-0.0	-0.0	-0.0	-0.0	-0.0	-0.0	99974.1796875	8476.7548828125	-4466.79296875
0.0025	-0.0	-0.0	-0.0	6.297386646270752	15.36841869354248	-342.1792297363281	-4.865058422088623	-16.72997283935547	-282.114501953125	-0.0	-0.0	-0.0	-0.0	-0.0	-0.0	99727.578125	8614.255859375	-4435.44384765625
0.003	-0.0	-0.0	-0.0	6.345836162567139	15.101065635681152	-342.6316223144531	-4.776423931121826	-16.785600662231445	-281.26910400390625	-0.0	-0.0	-0.0	-0.0	-0.0	-0.0	99827.203125	8615.841796875	-4491.59814453125
0.0035	-0.0	-0.0	-0.0	6.270659446716309	15.177308082580566	-341.6246337890625	-4.776547431945801	-16.465106964111328	-281.2304077148437	-0.0	-0.0	-0.0	-0.0	-0.0	-0.0	99542.046875	8526.73828125	-4575.84130859375
0.004	-0.0	-0.0	-0.0	6.027818202972412	15.177502632141112	-341.47418212890625	-4.524250030517578	-16.669105529785156	-280.4084777832031	-0.0	-0.0	-0.0	-0.0	-0.0	-0.0	99601.046875	8672.21875	-4457.0576171875
0.0045000000000000005	-0.0	-0.0	-0.0	6.180995464324951	14.94845962524414	-340.8184814453125	-4.701671600341797	-16.567102432250977	-280.22100830078125	-0.0	-0.0	-0.0	-0.0	-0.0	-0.0	99328.609375	8570.58203125	-4410.3828125
0.005	-0.0	-0.0	-0.0	6.486678600311279	15.139568328857422	-339.2043762207031	-4.3979268074035645	-16.224336624145508	-280.7178955078125	-0.0	-0.0	-0.0	-0.0	-0.0	-0.0	99452.3125	8679.1376953125	-4499.095703125
0.0055	-0.0	-0.0	-0.0	5.683670520782471	15.025465965270996	-341.37322998046875	-4.626371383666992	-16.451967239379883	-279.8186340332031	-0.0	-0.0	-0.0	-0.0	-0.0	-0.0	99286.21875	8556.984375	-4313.2392578125
0.006	-0.0	-0.0	-0.0	6.12955904006958	14.70651626586914	-340.5682678222656	-4.424438953399658	-16.288728713989258	-279.8712158203125	-0.0	-0.0	-0.0	-0.0	-0.0	-0.0	99549.4765625	8742.7861328125	-4457.62646484375
0.006500000000000001	-0.0	-0.0	-0.0	5.798683166503906	14.910938262939451	-341.3240966796875	-4.599803924560547	-16.427833557128906	-281.0219421386719	-0.0	-0.0	-0.0	-0.0	-0.0	-0.0	99275.765625	8759.408203125	-4524.6103515625
0.007	-0.0	-0.0	-0.0	5.5432562828063965	14.80784034729004	-340.3688049316406	-4.943071365356445	-16.225141525268555	-279.87078857421875	-0.0	-0.0	-0.0	-0.0	-0.0	-0.0	99339.4921875	8722.904296875	-4452.8681640625
0.0075	-0.0	-0.0	-0.0	5.685312747955322	14.783577919006348	-339.7113037109375	-4.650836944580078	-16.465543746948242	-279.67437744140625	-0.0	-0.0	-0.0	-0.0	-0.0	-0.0	99238.3203125	8880.8896484375	-4537.75537109375
0.008	-0.0	-0.0	-0.0	5.099728107452393	14.733171463012695	-337.6983337402344	-4.854527950286865	-16.36505699157715	-280.1205749511719	-0.0	-0.0	-0.0	-0.0	-0.0	-0.0	99196.484375	8861.1162109375	-4559.0771484375
0.0085	-0.0	-0.0	-0.0	5.290212631225586	14.617385864257812	-339.81817626953125	-5.309893131256104	-16.326812744140625	-280.86737060546875	-0.0	-0.0	-0.0	-0.0	-0.0	-0.0	99072.0078125	8885.8603515625	-4593.14990234375
0.009000000000000001	-0.0	-0.0	-0.0	5.581521511077881	14.854240417480469	-339.41998291015625	-5.462018013000488	-16.478271484375	-280.3182678222656	-0.0	-0.0	-0.0	-0.0	-0.0	-0.0	99174.328125	9026.8271484375	-4610.212890625
0.0095	-0.0	-0.0	-0.0	5.275074005126953	15.276227951049805	-339.7129821777344	-5.2464704513549805	-16.50367546081543	-280.01959228515625	-0.0	-0.0	-0.0	-0.0	-0.0	-0.0	99373.6015625	8922.275390625	-4711.931640625
0.01	-0.0	-0.0	-0.0	5.251874923706055	14.884777069091797	-338.8824157714844	-5.44950008392334	-16.5408992767334	-280.5643920898437	-0.0	-0.0	-0.0	-0.0	-0.0	-0.0	99442.109375	8994.30078125	-4754.3232421875
0.0105	-0.0	-0.0	-0.0	5.805376052856445	15.11329746246338	-340.3114318847656	-5.373143196105957	-16.529747009277344	-280.2183532714844	-0.0	-0.0	-0.0	-0.0	-0.0	-0.0	99271.6796875	9048.5068359375	-4762.47998046875
0.011	-0.0	-0.0	-0.0	5.341307163238525	15.041788101196287	-340.4654541015625	-5.272188663482666	-16.717103958129883	-279.8690490722656	-0.0	-0.0	-0.0	-0.0	-0.0	-0.0	99451.4375	8954.7607421875	-4762.95166015625
0.0115	-0.0	-0.0	-0.0	5.224414348602295	15.174546241760254	-341.0617370605469	-5.296414852142334	-16.616506576538086	-280.7654724121094	-0.0	-0.0	-0.0	-0.0	-0.0	-0.0	99530.5546875	9084.64453125	-4762.31396484375
0.012	-0.0	-0.0	-0.0	5.224349498748779	15.124192237854004	-341.4373779296875	-5.198076725006104	-16.58067512512207	-280.3687744140625	-0.0	-0.0	-0.0	-0.0	-0.0	-0.0	99699.515625	8959.3173828125	-4665.16259765625
0.0125	-0.0	-0.0	-0.0	6.032073974609375	15.41343879699707	-341.5250244140625	-5.260474681854248	-16.831193923950195	-281.5674133300781	-0.0	-0.0	-0.0	-0.0	-0.0	-0.0	99665.96875	8921.4638671875	-4716.65478515625
0.013000000000000001	-0.0	-0.0	-0.0	5.641958713531494	15.02810001373291	-341.921142578125	-4.920870780944824	-16.201189041137695	-281.508544921875	-0.0	-0.0	-0.0	-0.0	-0.0	-0.0	99622.296875	9091.568359375	-4748.837890625
0.0135	-0.0	-0.0	-0.0	5.798683166503906	14.956250190734863	-342.6698303222656	-5.148777008056641	-16.91940689086914	-282.3120422363281	-0.0	-0.0	-0.0	-0.0	-0.0	-0.0	99812.0	9021.095703125	-4805.73681640625
0.014	-0.0	-0.0	-0.0	5.49906063079834	14.99183750152588	-342.58453369140625	-5.068064212799072	-16.731210708618164	-281.1125183105469	-0.0	-0.0	-0.0	-0.0	-0.0	-0.0	99792.0234375	9005.0927734375	-4728.298828125
0.0145	-0.0	-0.0	-0.0	5.0063066482543945	15.293841361999512	-343.9139709472656	-5.272589206695557	-16.593122482299805	-281.2192077636719	-0.0	-0.0	-0.0	-0.0	-0.0	-0.0	99718.390625	9062.0869140625	-4750.39697265625
0.015	-0.0	-0.0	-0.0	5.302804470062256	15.173032760620115	-343.8413391113281	-5.161258697509766	-16.6317195892334	-281.41619873046875	-0.0	-0.0	-0.0	-0.0	-0.0	-0.0	99823.875	8853.521484375	-4765.50634765625
0.0155	-0.0	-0.0	-0.0	5.074682235717773	15.003011703491213	-344.0717468261719	-5.217593193054199	-16.46641731262207	-281.41619873046875	-0.0	-0.0	-0.0	-0.0	-0.0	-0.0	99864.0	9141.3486328125	-4796.7626953125
0.016	-0.0	-0.0	-0.0	4.738344669342041	15.49851131439209	-344.3858642578125	-5.378129005432129	-16.251190185546875	-281.91815185546875	-0.0	-0.0	-0.0	-0.0	-0.0	-0.0	99794.765625	9205.3828125	-4889.5390625
0.0165	-0.0	-0.0	-0.0	4.866127014160156	14.973907470703123	-344.50701904296875	-5.233936309814453	-16.411056518554688	-281.28631591796875	-0.0	-0.0	-0.0	-0.0	-0.0	-0.0	99852.796875	9231.412109375	-4885.78564453125
0.017	-0.0	-0.0	-0.0	4.311758995056152	15.42951774597168	-344.822021484375	-5.24479341506958	-16.505346298217773	-282.3104553222656	-0.0	-0.0	-0.0	-0.0	-0.0	-0.0	99875.1171875	9238.23828125	-4969.078125
0.0175	-0.0	-0.0	-0.0	4.519967079162598	14.92440128326416	-343.5657958984375	-5.439541339874268	-16.190929412841797	-281.7229309082031	-0.0	-0.0	-0.0	-0.0	-0.0	-0.0	99791.296875	9234.365234375	-4869.2783203125
0.018000000000000002	-0.0	-0.0	-0.0	4.530170917510986	15.162525177001951	-344.74237060546875	-5.571107864379883	-16.44542694091797	-282.6317138671875	-0.0	-0.0	-0.0	-0.0	-0.0	-0.0	99776.9765625	9231.8037109375	-5019.02197265625
0.0185	-0.0	-0.0	-0.0	4.420738697052002	14.93415641784668	-343.214599609375	-5.578250885009766	-16.349994659423828	-281.06707763671875	-0.0	-0.0	-0.0	-0.0	-0.0	-0.0	99527.71875	9175.0126953125	-4932.3505859375
0.019	-0.0	-0.0	-0.0	4.589561462402344	15.03279972076416	-344.47027587890625	-5.776653289794922	-16.349918365478516	-279.824462890625	-0.0	-0.0	-0.0	-0.0	-0.0	-0.0	99542.4453125	9291.8955078125	-5051.14794921875
0.0195	-0.0	-0.0	-0.0	4.48883056640625	15.072463989257812	-344.9736022949219	-6.180891513824463	-16.318946838378906	-280.0925598144531	-0.0	-0.0	-0.0	-0.0	-0.0	-0.0	99239.9140625	9463.0546875	-5120.40771484375
0.02	-0.0	-0.0	-0.0	4.531124114990234	15.271917343139648	-343.96044921875	-5.894167423248291	-16.506000518798828	-279.16680908203125	-0.0	-0.0	-0.0	-0.0	-0.0	-0.0	99249.546875	9473.1240234375	-5176.74853515625
0.0205	-0.0	-0.0	-0.0	4.094452857971191	15.102992057800291	-343.9120483398437	-6.170461654663086	-16.16286849975586	-279.0119934082031	-0.0	-0.0	-0.0	-0.0	-0.0	-0.0	99046.5546875	9424.5126953125	-5229.36474609375
0.021	-0.0	-0.0	-0.0	4.928471565246582	15.339505195617676	-345.287353515625	-5.854359149932861	-16.290382385253906	-279.63116455078125	-0.0	-0.0	-0.0	-0.0	-0.0	-0.0	99047.25	9378.080078125	-5238.9990234375
0.021500000000000002	-0.0	-0.0	-0.0	4.438440799713135	15.539754867553713	-344.3504638671875	-6.111351490020752	-16.280561447143555	-278.81707763671875	-0.0	-0.0	-0.0	-0.0	-0.0	-0.0	98965.2890625	9589.8330078125	-5265.6396484375
0.022	-0.0	-0.0	-0.0	4.322259902954102	15.499797821044922	-343.90875244140625	-6.337923049926758	-16.05504035949707	-277.7694091796875	-0.0	-0.0	-0.0	-0.0	-0.0	-0.0	98805.28125	9350.80859375	-5183.32275390625
0.0225	-0.0	-0.0	-0.0	4.607472896575928	15.485990524291992	-344.6689758300781	-5.86456298828125	-16.731233596801758	-277.0292053222656	-0.0	-0.0	-0.0	-0.0	-0.0	-0.0	98380.5078125	9641.6865234375	-5186.4091796875
0.023	-0.0	-0.0	-0.0	4.656304359436035	15.540247917175291	-344.3160705566406	-6.209754943847656	-16.566341400146484	-277.7689514160156	-0.0	-0.0	-0.0	-0.0	-0.0	-0.0	98481.765625	9597.6201171875	-5173.36962890625
0.0235	-0.0	-0.0	-0.0	4.711049556732178	15.476943969726562	-344.3843078613281	-5.943622589111328	-16.309467315673828	-277.22637939453125	-0.0	-0.0	-0.0	-0.0	-0.0	-0.0	98187.78125	9572.8642578125	-5140.24853515625
0.024	-0.0	-0.0	-0.0	4.93854570388794	15.913985252380373	-344.1905517578125	-5.598103046417236	-16.790403366088867	-277.5388488769531	-0.0	-0.0	-0.0	-0.0	-0.0	-0.0	98282.265625	9644.107421875	-5064.40576171875
0.0245	-0.0	-0.0	-0.0	4.647295951843262	15.808133125305176	-345.05682373046875	-5.628510475158691	-16.653242111206055	-277.1064147949219	-0.0	-0.0	-0.0	-0.0	-0.0	-0.0	98031.1015625	9680.548828125	-5067.49755859375
0.025	-0.0	-0.0	-0.0	4.930674076080322	15.735613822937012	-346.597412109375	-5.677490234375	-16.516155242919922	-277.647216796875	-0.0	-0.0	-0.0	-0.0	-0.0	-0.0	98126.3359375	9555.6162109375	-5027.5439453125
